<?xml version="1.0" encoding="UTF-8" standalone="no"?><svg xmlns="http://www.w3.org/2000/svg" xmlns:xlink="http://www.w3.org/1999/xlink" contentScriptType="application/ecmascript" contentStyleType="text/css" height="844px" preserveAspectRatio="none" style="width:920px;height:844px;" version="1.1" viewBox="0 0 920 844" width="920px" zoomAndPan="magnify"><defs><filter height="300%" id="fq5fomk9eemxc" width="300%" x="-1" y="-1"><feGaussianBlur result="blurOut" stdDeviation="2.0"/><feColorMatrix in="blurOut" result="blurOut2" type="matrix" values="0 0 0 0 0 0 0 0 0 0 0 0 0 0 0 0 0 0 .4 0"/><feOffset dx="4.0" dy="4.0" in="blurOut2" result="blurOut3"/><feBlend in="SourceGraphic" in2="blurOut3" mode="normal"/></filter></defs><g><!--class Person--><rect fill="#FEFECE" filter="url(#fq5fomk9eemxc)" height="283.2109" id="Person" style="stroke: #A80036; stroke-width: 1.5;" width="240" x="262.5" y="8"/><ellipse cx="358.25" cy="24" fill="#ADD1B2" rx="11" ry="11" style="stroke: #A80036; stroke-width: 1.0;"/><path d="M361.0156,19.875 Q361.1719,19.6563 361.3594,19.5469 Q361.5469,19.4375 361.7656,19.4375 Q362.1406,19.4375 362.375,19.6953 Q362.6094,19.9531 362.6094,20.5625 L362.6094,22.0156 Q362.6094,22.625 362.375,22.8906 Q362.1406,23.1563 361.7656,23.1563 Q361.4219,23.1563 361.2188,22.9531 Q361.0156,22.7656 360.9063,22.25 Q360.8594,21.8906 360.6719,21.7031 Q360.3438,21.3281 359.7344,21.1094 Q359.125,20.8906 358.5,20.8906 Q357.7344,20.8906 357.1016,21.2188 Q356.4688,21.5469 355.9766,22.2969 Q355.4844,23.0469 355.4844,24.0781 L355.4844,25.1719 Q355.4844,26.4063 356.375,27.2266 Q357.2656,28.0469 358.8594,28.0469 Q359.7969,28.0469 360.4531,27.7969 Q360.8438,27.6406 361.2656,27.2031 Q361.5313,26.9375 361.6797,26.8594 Q361.8281,26.7813 362.0313,26.7813 Q362.3594,26.7813 362.6172,27.0391 Q362.875,27.2969 362.875,27.6406 Q362.875,27.9844 362.5313,28.3906 Q362.0313,28.9688 361.2344,29.2969 Q360.1563,29.75 358.8594,29.75 Q357.3438,29.75 356.1406,29.125 Q355.1563,28.625 354.4688,27.5547 Q353.7813,26.4844 353.7813,25.2031 L353.7813,24.0469 Q353.7813,22.7188 354.3984,21.5703 Q355.0156,20.4219 356.1094,19.8047 Q357.2031,19.1875 358.4375,19.1875 Q359.1719,19.1875 359.8203,19.3516 Q360.4688,19.5156 361.0156,19.875 Z "/><text fill="#000000" font-family="sans-serif" font-size="12" lengthAdjust="spacingAndGlyphs" textLength="40" x="378.75" y="28.9102">Person</text><line style="stroke: #A80036; stroke-width: 1.5;" x1="263.5" x2="501.5" y1="40" y2="40"/><rect fill="none" height="6" style="stroke: #C82930; stroke-width: 1.0;" width="6" x="270.5" y="48"/><text fill="#000000" font-family="sans-serif" font-size="11" lengthAdjust="spacingAndGlyphs" textLength="84" x="282.5" y="55.4189">username : string</text><rect fill="none" height="6" style="stroke: #C82930; stroke-width: 1.0;" width="6" x="270.5" y="61.8359"/><text fill="#000000" font-family="sans-serif" font-size="11" lengthAdjust="spacingAndGlyphs" textLength="81" x="282.5" y="69.2549">firstname : string</text><rect fill="none" height="6" style="stroke: #C82930; stroke-width: 1.0;" width="6" x="270.5" y="75.6719"/><text fill="#000000" font-family="sans-serif" font-size="11" lengthAdjust="spacingAndGlyphs" textLength="79" x="282.5" y="83.0908">lastname : string</text><rect fill="none" height="6" style="stroke: #C82930; stroke-width: 1.0;" width="6" x="270.5" y="89.5078"/><text fill="#000000" font-family="sans-serif" font-size="11" lengthAdjust="spacingAndGlyphs" textLength="86" x="282.5" y="96.9268">password : string</text><rect fill="none" height="6" style="stroke: #C82930; stroke-width: 1.0;" width="6" x="270.5" y="103.3438"/><text fill="#000000" font-family="sans-serif" font-size="11" lengthAdjust="spacingAndGlyphs" textLength="66" x="282.5" y="110.7627">email : string?</text><rect fill="none" height="6" style="stroke: #C82930; stroke-width: 1.0;" width="6" x="270.5" y="117.1797"/><text fill="#000000" font-family="sans-serif" font-size="11" lengthAdjust="spacingAndGlyphs" textLength="72" x="282.5" y="124.5986">birthdate : date</text><rect fill="none" height="6" style="stroke: #C82930; stroke-width: 1.0;" width="6" x="270.5" y="131.0156"/><text fill="#000000" font-family="sans-serif" font-size="11" lengthAdjust="spacingAndGlyphs" textLength="82" x="282.5" y="138.4346">address : string?</text><rect fill="none" height="6" style="stroke: #C82930; stroke-width: 1.0;" width="6" x="270.5" y="144.8516"/><text fill="#000000" font-family="sans-serif" font-size="11" lengthAdjust="spacingAndGlyphs" textLength="96" x="282.5" y="152.2705">picturePath : string?</text><rect fill="none" height="6" style="stroke: #C82930; stroke-width: 1.0;" width="6" x="270.5" y="158.6875"/><text fill="#000000" font-family="sans-serif" font-size="11" lengthAdjust="spacingAndGlyphs" textLength="70" x="282.5" y="166.1064">status : Status</text><line style="stroke: #A80036; stroke-width: 1.5;" x1="263.5" x2="501.5" y1="172.5234" y2="172.5234"/><ellipse cx="273.5" cy="183.5234" fill="#84BE84" rx="3" ry="3" style="stroke: #038048; stroke-width: 1.0;"/><text fill="#000000" font-family="sans-serif" font-size="11" lengthAdjust="spacingAndGlyphs" textLength="51" x="282.5" y="187.9424">Person(...)</text><ellipse cx="273.5" cy="197.3594" fill="#84BE84" rx="3" ry="3" style="stroke: #038048; stroke-width: 1.0;"/><text fill="#000000" font-family="sans-serif" font-size="11" lengthAdjust="spacingAndGlyphs" textLength="25" x="282.5" y="201.7783">Edit()</text><ellipse cx="273.5" cy="211.1953" fill="#84BE84" rx="3" ry="3" style="stroke: #038048; stroke-width: 1.0;"/><text fill="#000000" font-family="sans-serif" font-size="11" lengthAdjust="spacingAndGlyphs" textLength="38" x="282.5" y="215.6143">Delete()</text><ellipse cx="273.5" cy="225.0313" fill="#84BE84" rx="3" ry="3" style="stroke: #038048; stroke-width: 1.0;"/><text fill="#000000" font-family="sans-serif" font-size="11" lengthAdjust="spacingAndGlyphs" textLength="102" x="282.5" y="229.4502">GetPerson() : Person</text><ellipse cx="273.5" cy="238.8672" fill="#84BE84" rx="3" ry="3" style="stroke: #038048; stroke-width: 1.0;"/><text fill="#000000" font-family="sans-serif" font-size="11" lengthAdjust="spacingAndGlyphs" textLength="92" x="282.5" y="243.2861">GetStatus() : string</text><ellipse cx="273.5" cy="252.7031" fill="#84BE84" rx="3" ry="3" style="stroke: #038048; stroke-width: 1.0;"/><text fill="#000000" font-family="sans-serif" font-size="11" lengthAdjust="spacingAndGlyphs" text-decoration="underline" textLength="139" x="282.5" y="257.1221">GetPersById(id : int) : Person</text><ellipse cx="273.5" cy="266.5391" fill="#84BE84" rx="3" ry="3" style="stroke: #038048; stroke-width: 1.0;"/><text fill="#000000" font-family="sans-serif" font-size="11" lengthAdjust="spacingAndGlyphs" text-decoration="underline" textLength="214" x="282.5" y="270.958">GetByUsername(username : string) : Person</text><ellipse cx="273.5" cy="280.375" fill="#84BE84" rx="3" ry="3" style="stroke: #038048; stroke-width: 1.0;"/><text fill="#000000" font-family="sans-serif" font-size="11" lengthAdjust="spacingAndGlyphs" text-decoration="underline" textLength="141" x="282.5" y="284.7939">GetStatusById(id : int) : string</text><!--class Course--><rect fill="#FEFECE" filter="url(#fq5fomk9eemxc)" height="283.2109" id="Course" style="stroke: #A80036; stroke-width: 1.5;" width="311" x="598" y="8"/><ellipse cx="728.75" cy="24" fill="#ADD1B2" rx="11" ry="11" style="stroke: #A80036; stroke-width: 1.0;"/><path d="M731.5156,19.875 Q731.6719,19.6563 731.8594,19.5469 Q732.0469,19.4375 732.2656,19.4375 Q732.6406,19.4375 732.875,19.6953 Q733.1094,19.9531 733.1094,20.5625 L733.1094,22.0156 Q733.1094,22.625 732.875,22.8906 Q732.6406,23.1563 732.2656,23.1563 Q731.9219,23.1563 731.7188,22.9531 Q731.5156,22.7656 731.4063,22.25 Q731.3594,21.8906 731.1719,21.7031 Q730.8438,21.3281 730.2344,21.1094 Q729.625,20.8906 729,20.8906 Q728.2344,20.8906 727.6016,21.2188 Q726.9688,21.5469 726.4766,22.2969 Q725.9844,23.0469 725.9844,24.0781 L725.9844,25.1719 Q725.9844,26.4063 726.875,27.2266 Q727.7656,28.0469 729.3594,28.0469 Q730.2969,28.0469 730.9531,27.7969 Q731.3438,27.6406 731.7656,27.2031 Q732.0313,26.9375 732.1797,26.8594 Q732.3281,26.7813 732.5313,26.7813 Q732.8594,26.7813 733.1172,27.0391 Q733.375,27.2969 733.375,27.6406 Q733.375,27.9844 733.0313,28.3906 Q732.5313,28.9688 731.7344,29.2969 Q730.6563,29.75 729.3594,29.75 Q727.8438,29.75 726.6406,29.125 Q725.6563,28.625 724.9688,27.5547 Q724.2813,26.4844 724.2813,25.2031 L724.2813,24.0469 Q724.2813,22.7188 724.8984,21.5703 Q725.5156,20.4219 726.6094,19.8047 Q727.7031,19.1875 728.9375,19.1875 Q729.6719,19.1875 730.3203,19.3516 Q730.9688,19.5156 731.5156,19.875 Z "/><text fill="#000000" font-family="sans-serif" font-size="12" lengthAdjust="spacingAndGlyphs" textLength="41" x="749.25" y="28.9102">Course</text><line style="stroke: #A80036; stroke-width: 1.5;" x1="599" x2="908" y1="40" y2="40"/><rect fill="none" height="6" style="stroke: #C82930; stroke-width: 1.0;" width="6" x="606" y="48"/><text fill="#000000" font-family="sans-serif" font-size="11" lengthAdjust="spacingAndGlyphs" textLength="85" x="618" y="55.4189">period[] : datetime</text><rect fill="none" height="6" style="stroke: #C82930; stroke-width: 1.0;" width="6" x="606" y="61.8359"/><text fill="#000000" font-family="sans-serif" font-size="11" lengthAdjust="spacingAndGlyphs" textLength="80" x="618" y="69.2549">price : PriceList[]</text><rect fill="none" height="6" style="stroke: #C82930; stroke-width: 1.0;" width="6" x="606" y="75.6719"/><text fill="#000000" font-family="sans-serif" font-size="11" lengthAdjust="spacingAndGlyphs" textLength="57" x="618" y="83.0908">type : string</text><rect fill="none" height="6" style="stroke: #C82930; stroke-width: 1.0;" width="6" x="606" y="89.5078"/><text fill="#000000" font-family="sans-serif" font-size="11" lengthAdjust="spacingAndGlyphs" textLength="62" x="618" y="96.9268">place : string</text><rect fill="none" height="6" style="stroke: #C82930; stroke-width: 1.0;" width="6" x="606" y="103.3438"/><text fill="#000000" font-family="sans-serif" font-size="11" lengthAdjust="spacingAndGlyphs" textLength="77" x="618" y="110.7627">maxStudent : int</text><rect fill="none" height="6" style="stroke: #C82930; stroke-width: 1.0;" width="6" x="606" y="117.1797"/><text fill="#000000" font-family="sans-serif" font-size="11" lengthAdjust="spacingAndGlyphs" textLength="101" x="618" y="124.5986">followers : Person[]?</text><rect fill="none" height="6" style="stroke: #C82930; stroke-width: 1.0;" width="6" x="606" y="131.0156"/><text fill="#000000" font-family="sans-serif" font-size="11" lengthAdjust="spacingAndGlyphs" textLength="91" x="618" y="138.4346">professor : Person</text><line style="stroke: #A80036; stroke-width: 1.5;" x1="599" x2="908" y1="144.8516" y2="144.8516"/><ellipse cx="609" cy="155.8516" fill="#84BE84" rx="3" ry="3" style="stroke: #038048; stroke-width: 1.0;"/><text fill="#000000" font-family="sans-serif" font-size="11" lengthAdjust="spacingAndGlyphs" textLength="52" x="618" y="160.2705">Course(...)</text><ellipse cx="609" cy="169.6875" fill="#84BE84" rx="3" ry="3" style="stroke: #038048; stroke-width: 1.0;"/><text fill="#000000" font-family="sans-serif" font-size="11" lengthAdjust="spacingAndGlyphs" textLength="25" x="618" y="174.1064">Edit()</text><ellipse cx="609" cy="183.5234" fill="#84BE84" rx="3" ry="3" style="stroke: #038048; stroke-width: 1.0;"/><text fill="#000000" font-family="sans-serif" font-size="11" lengthAdjust="spacingAndGlyphs" textLength="38" x="618" y="187.9424">Delete()</text><ellipse cx="609" cy="197.3594" fill="#84BE84" rx="3" ry="3" style="stroke: #038048; stroke-width: 1.0;"/><text fill="#000000" font-family="sans-serif" font-size="11" lengthAdjust="spacingAndGlyphs" textLength="104" x="618" y="201.7783">GetCourse() : Course</text><ellipse cx="609" cy="211.1953" fill="#84BE84" rx="3" ry="3" style="stroke: #038048; stroke-width: 1.0;"/><text fill="#000000" font-family="sans-serif" font-size="11" lengthAdjust="spacingAndGlyphs" textLength="151" x="618" y="215.6143">SubToCourse(person : Person)</text><ellipse cx="609" cy="225.0313" fill="#84BE84" rx="3" ry="3" style="stroke: #038048; stroke-width: 1.0;"/><text fill="#000000" font-family="sans-serif" font-size="11" lengthAdjust="spacingAndGlyphs" text-decoration="underline" textLength="240" x="618" y="229.4502">SubToCourse(CourseId : int, person : Person) : int</text><ellipse cx="609" cy="238.8672" fill="#84BE84" rx="3" ry="3" style="stroke: #038048; stroke-width: 1.0;"/><text fill="#000000" font-family="sans-serif" font-size="11" lengthAdjust="spacingAndGlyphs" text-decoration="underline" textLength="285" x="618" y="243.2861">CancelSubToCourse(PersonId : int, CourseId : int) : boolean</text><ellipse cx="609" cy="252.7031" fill="#84BE84" rx="3" ry="3" style="stroke: #038048; stroke-width: 1.0;"/><text fill="#000000" font-family="sans-serif" font-size="11" lengthAdjust="spacingAndGlyphs" text-decoration="underline" textLength="153" x="618" y="257.1221">GetCourseById(id : int) : Course</text><ellipse cx="609" cy="266.5391" fill="#84BE84" rx="3" ry="3" style="stroke: #038048; stroke-width: 1.0;"/><text fill="#000000" font-family="sans-serif" font-size="11" lengthAdjust="spacingAndGlyphs" text-decoration="underline" textLength="167" x="618" y="270.958">GetFollowersList(id : int) : Person[]</text><ellipse cx="609" cy="280.375" fill="#84BE84" rx="3" ry="3" style="stroke: #038048; stroke-width: 1.0;"/><text fill="#000000" font-family="sans-serif" font-size="11" lengthAdjust="spacingAndGlyphs" text-decoration="underline" textLength="144" x="618" y="284.7939">GetProfessor(id : int) : Person</text><!--class Competition--><rect fill="#FEFECE" filter="url(#fq5fomk9eemxc)" height="283.2109" id="Competition" style="stroke: #A80036; stroke-width: 1.5;" width="231" x="454" y="369"/><ellipse cx="531.75" cy="385" fill="#ADD1B2" rx="11" ry="11" style="stroke: #A80036; stroke-width: 1.0;"/><path d="M534.5156,380.875 Q534.6719,380.6563 534.8594,380.5469 Q535.0469,380.4375 535.2656,380.4375 Q535.6406,380.4375 535.875,380.6953 Q536.1094,380.9531 536.1094,381.5625 L536.1094,383.0156 Q536.1094,383.625 535.875,383.8906 Q535.6406,384.1563 535.2656,384.1563 Q534.9219,384.1563 534.7188,383.9531 Q534.5156,383.7656 534.4063,383.25 Q534.3594,382.8906 534.1719,382.7031 Q533.8438,382.3281 533.2344,382.1094 Q532.625,381.8906 532,381.8906 Q531.2344,381.8906 530.6016,382.2188 Q529.9688,382.5469 529.4766,383.2969 Q528.9844,384.0469 528.9844,385.0781 L528.9844,386.1719 Q528.9844,387.4063 529.875,388.2266 Q530.7656,389.0469 532.3594,389.0469 Q533.2969,389.0469 533.9531,388.7969 Q534.3438,388.6406 534.7656,388.2031 Q535.0313,387.9375 535.1797,387.8594 Q535.3281,387.7813 535.5313,387.7813 Q535.8594,387.7813 536.1172,388.0391 Q536.375,388.2969 536.375,388.6406 Q536.375,388.9844 536.0313,389.3906 Q535.5313,389.9688 534.7344,390.2969 Q533.6563,390.75 532.3594,390.75 Q530.8438,390.75 529.6406,390.125 Q528.6563,389.625 527.9688,388.5547 Q527.2813,387.4844 527.2813,386.2031 L527.2813,385.0469 Q527.2813,383.7188 527.8984,382.5703 Q528.5156,381.4219 529.6094,380.8047 Q530.7031,380.1875 531.9375,380.1875 Q532.6719,380.1875 533.3203,380.3516 Q533.9688,380.5156 534.5156,380.875 Z "/><text fill="#000000" font-family="sans-serif" font-size="12" lengthAdjust="spacingAndGlyphs" textLength="67" x="552.25" y="389.9102">Competition</text><line style="stroke: #A80036; stroke-width: 1.5;" x1="455" x2="684" y1="401" y2="401"/><rect fill="none" height="6" style="stroke: #C82930; stroke-width: 1.0;" width="6" x="462" y="409"/><text fill="#000000" font-family="sans-serif" font-size="11" lengthAdjust="spacingAndGlyphs" textLength="79" x="474" y="416.4189">period : datetime</text><rect fill="none" height="6" style="stroke: #C82930; stroke-width: 1.0;" width="6" x="462" y="422.8359"/><text fill="#000000" font-family="sans-serif" font-size="11" lengthAdjust="spacingAndGlyphs" textLength="80" x="474" y="430.2549">price : PriceList[]</text><rect fill="none" height="6" style="stroke: #C82930; stroke-width: 1.0;" width="6" x="462" y="436.6719"/><text fill="#000000" font-family="sans-serif" font-size="11" lengthAdjust="spacingAndGlyphs" textLength="57" x="474" y="444.0908">type : string</text><rect fill="none" height="6" style="stroke: #C82930; stroke-width: 1.0;" width="6" x="462" y="450.5078"/><text fill="#000000" font-family="sans-serif" font-size="11" lengthAdjust="spacingAndGlyphs" textLength="62" x="474" y="457.9268">place : string</text><rect fill="none" height="6" style="stroke: #C82930; stroke-width: 1.0;" width="6" x="462" y="464.3438"/><text fill="#000000" font-family="sans-serif" font-size="11" lengthAdjust="spacingAndGlyphs" textLength="96" x="474" y="471.7627">maxParticipants : int</text><rect fill="none" height="6" style="stroke: #C82930; stroke-width: 1.0;" width="6" x="462" y="478.1797"/><text fill="#000000" font-family="sans-serif" font-size="11" lengthAdjust="spacingAndGlyphs" textLength="105" x="474" y="485.5986">participants : Person[]</text><rect fill="none" height="6" style="stroke: #C82930; stroke-width: 1.0;" width="6" x="462" y="492.0156"/><text fill="#000000" font-family="sans-serif" font-size="11" lengthAdjust="spacingAndGlyphs" textLength="83" x="474" y="499.4346">winner : Person?</text><line style="stroke: #A80036; stroke-width: 1.5;" x1="455" x2="684" y1="505.8516" y2="505.8516"/><ellipse cx="465" cy="516.8516" fill="#84BE84" rx="3" ry="3" style="stroke: #038048; stroke-width: 1.0;"/><text fill="#000000" font-family="sans-serif" font-size="11" lengthAdjust="spacingAndGlyphs" textLength="72" x="474" y="521.2705">Competition(...)</text><ellipse cx="465" cy="530.6875" fill="#84BE84" rx="3" ry="3" style="stroke: #038048; stroke-width: 1.0;"/><text fill="#000000" font-family="sans-serif" font-size="11" lengthAdjust="spacingAndGlyphs" textLength="25" x="474" y="535.1064">Edit()</text><ellipse cx="465" cy="544.5234" fill="#84BE84" rx="3" ry="3" style="stroke: #038048; stroke-width: 1.0;"/><text fill="#000000" font-family="sans-serif" font-size="11" lengthAdjust="spacingAndGlyphs" textLength="38" x="474" y="548.9424">Delete()</text><ellipse cx="465" cy="558.3594" fill="#84BE84" rx="3" ry="3" style="stroke: #038048; stroke-width: 1.0;"/><text fill="#000000" font-family="sans-serif" font-size="11" lengthAdjust="spacingAndGlyphs" textLength="174" x="474" y="562.7783">SubToCompetition (person : Person)</text><ellipse cx="465" cy="572.1953" fill="#84BE84" rx="3" ry="3" style="stroke: #038048; stroke-width: 1.0;"/><text fill="#000000" font-family="sans-serif" font-size="11" lengthAdjust="spacingAndGlyphs" textLength="136" x="474" y="576.6143">EditWinner(Winner : Person)</text><ellipse cx="465" cy="586.0313" fill="#84BE84" rx="3" ry="3" style="stroke: #038048; stroke-width: 1.0;"/><text fill="#000000" font-family="sans-serif" font-size="11" lengthAdjust="spacingAndGlyphs" textLength="130" x="474" y="590.4502">GetParticipants() : Person[]</text><ellipse cx="465" cy="599.8672" fill="#84BE84" rx="3" ry="3" style="stroke: #038048; stroke-width: 1.0;"/><text fill="#000000" font-family="sans-serif" font-size="11" lengthAdjust="spacingAndGlyphs" textLength="144" x="474" y="604.2861">GetCompetition() : Competition</text><ellipse cx="465" cy="613.7031" fill="#84BE84" rx="3" ry="3" style="stroke: #038048; stroke-width: 1.0;"/><text fill="#000000" font-family="sans-serif" font-size="11" lengthAdjust="spacingAndGlyphs" text-decoration="underline" textLength="205" x="474" y="618.1221">SubToCompetition(id : int, person : Person)</text><ellipse cx="465" cy="627.5391" fill="#84BE84" rx="3" ry="3" style="stroke: #038048; stroke-width: 1.0;"/><text fill="#000000" font-family="sans-serif" font-size="11" lengthAdjust="spacingAndGlyphs" text-decoration="underline" textLength="193" x="474" y="631.958">GetCompetitionById(id : int) : Competition</text><ellipse cx="465" cy="641.375" fill="#84BE84" rx="3" ry="3" style="stroke: #038048; stroke-width: 1.0;"/><text fill="#000000" font-family="sans-serif" font-size="11" lengthAdjust="spacingAndGlyphs" text-decoration="underline" textLength="173" x="474" y="645.7939">GetParticipantsById(id : int) : Person</text><!--class Subscription--><rect fill="#FEFECE" filter="url(#fq5fomk9eemxc)" height="214.0313" id="Subscription" style="stroke: #A80036; stroke-width: 1.5;" width="222" x="83.5" y="403.5"/><ellipse cx="155.75" cy="419.5" fill="#ADD1B2" rx="11" ry="11" style="stroke: #A80036; stroke-width: 1.0;"/><path d="M158.5156,415.375 Q158.6719,415.1563 158.8594,415.0469 Q159.0469,414.9375 159.2656,414.9375 Q159.6406,414.9375 159.875,415.1953 Q160.1094,415.4531 160.1094,416.0625 L160.1094,417.5156 Q160.1094,418.125 159.875,418.3906 Q159.6406,418.6563 159.2656,418.6563 Q158.9219,418.6563 158.7188,418.4531 Q158.5156,418.2656 158.4063,417.75 Q158.3594,417.3906 158.1719,417.2031 Q157.8438,416.8281 157.2344,416.6094 Q156.625,416.3906 156,416.3906 Q155.2344,416.3906 154.6016,416.7188 Q153.9688,417.0469 153.4766,417.7969 Q152.9844,418.5469 152.9844,419.5781 L152.9844,420.6719 Q152.9844,421.9063 153.875,422.7266 Q154.7656,423.5469 156.3594,423.5469 Q157.2969,423.5469 157.9531,423.2969 Q158.3438,423.1406 158.7656,422.7031 Q159.0313,422.4375 159.1797,422.3594 Q159.3281,422.2813 159.5313,422.2813 Q159.8594,422.2813 160.1172,422.5391 Q160.375,422.7969 160.375,423.1406 Q160.375,423.4844 160.0313,423.8906 Q159.5313,424.4688 158.7344,424.7969 Q157.6563,425.25 156.3594,425.25 Q154.8438,425.25 153.6406,424.625 Q152.6563,424.125 151.9688,423.0547 Q151.2813,421.9844 151.2813,420.7031 L151.2813,419.5469 Q151.2813,418.2188 151.8984,417.0703 Q152.5156,415.9219 153.6094,415.3047 Q154.7031,414.6875 155.9375,414.6875 Q156.6719,414.6875 157.3203,414.8516 Q157.9688,415.0156 158.5156,415.375 Z "/><text fill="#000000" font-family="sans-serif" font-size="12" lengthAdjust="spacingAndGlyphs" textLength="69" x="176.25" y="424.4102">Subscription</text><line style="stroke: #A80036; stroke-width: 1.5;" x1="84.5" x2="304.5" y1="435.5" y2="435.5"/><rect fill="none" height="6" style="stroke: #C82930; stroke-width: 1.0;" width="6" x="91.5" y="443.5"/><text fill="#000000" font-family="sans-serif" font-size="11" lengthAdjust="spacingAndGlyphs" textLength="80" x="103.5" y="450.9189">price : PriceList[]</text><rect fill="none" height="6" style="stroke: #C82930; stroke-width: 1.0;" width="6" x="91.5" y="457.3359"/><text fill="#000000" font-family="sans-serif" font-size="11" lengthAdjust="spacingAndGlyphs" textLength="122" x="103.5" y="464.7549">name : SubscriptionName</text><rect fill="none" height="6" style="stroke: #C82930; stroke-width: 1.0;" width="6" x="91.5" y="471.1719"/><text fill="#000000" font-family="sans-serif" font-size="11" lengthAdjust="spacingAndGlyphs" textLength="118" x="103.5" y="478.5908">expirationDate : datetime</text><line style="stroke: #A80036; stroke-width: 1.5;" x1="84.5" x2="304.5" y1="485.0078" y2="485.0078"/><ellipse cx="94.5" cy="496.0078" fill="#84BE84" rx="3" ry="3" style="stroke: #038048; stroke-width: 1.0;"/><text fill="#000000" font-family="sans-serif" font-size="11" lengthAdjust="spacingAndGlyphs" textLength="77" x="103.5" y="500.4268">Subscription(...)</text><ellipse cx="94.5" cy="509.8438" fill="#84BE84" rx="3" ry="3" style="stroke: #038048; stroke-width: 1.0;"/><text fill="#000000" font-family="sans-serif" font-size="11" lengthAdjust="spacingAndGlyphs" textLength="25" x="103.5" y="514.2627">Edit()</text><ellipse cx="94.5" cy="523.6797" fill="#84BE84" rx="3" ry="3" style="stroke: #038048; stroke-width: 1.0;"/><text fill="#000000" font-family="sans-serif" font-size="11" lengthAdjust="spacingAndGlyphs" textLength="38" x="103.5" y="528.0986">Delete()</text><ellipse cx="94.5" cy="537.5156" fill="#84BE84" rx="3" ry="3" style="stroke: #038048; stroke-width: 1.0;"/><text fill="#000000" font-family="sans-serif" font-size="11" lengthAdjust="spacingAndGlyphs" text-decoration="underline" textLength="192" x="103.5" y="541.9346">Sub(person : Person, name : string) : int</text><ellipse cx="94.5" cy="551.3516" fill="#84BE84" rx="3" ry="3" style="stroke: #038048; stroke-width: 1.0;"/><text fill="#000000" font-family="sans-serif" font-size="11" lengthAdjust="spacingAndGlyphs" textLength="195" x="103.5" y="555.7705">CancelSubscription(SubId : int) : boolean</text><ellipse cx="94.5" cy="565.1875" fill="#84BE84" rx="3" ry="3" style="stroke: #038048; stroke-width: 1.0;"/><text fill="#000000" font-family="sans-serif" font-size="11" lengthAdjust="spacingAndGlyphs" textLength="154" x="103.5" y="569.6064">GetSubscription() : Subscription</text><ellipse cx="94.5" cy="579.0234" fill="#84BE84" rx="3" ry="3" style="stroke: #038048; stroke-width: 1.0;"/><text fill="#000000" font-family="sans-serif" font-size="11" lengthAdjust="spacingAndGlyphs" text-decoration="underline" textLength="159" x="103.5" y="583.4424">GetSubById(id : int): Subscription</text><ellipse cx="94.5" cy="592.8594" fill="#84BE84" rx="3" ry="3" style="stroke: #038048; stroke-width: 1.0;"/><text fill="#000000" font-family="sans-serif" font-size="11" lengthAdjust="spacingAndGlyphs" text-decoration="underline" textLength="177" x="103.5" y="597.2783">GetByPersonId(id : int) : Subscription</text><ellipse cx="94.5" cy="606.6953" fill="#84BE84" rx="3" ry="3" style="stroke: #038048; stroke-width: 1.0;"/><text fill="#000000" font-family="sans-serif" font-size="11" lengthAdjust="spacingAndGlyphs" text-decoration="underline" textLength="196" x="103.5" y="611.1143">GetByName(name : string) : Subscription</text><!--class Post--><rect fill="#FEFECE" filter="url(#fq5fomk9eemxc)" height="200.1953" id="Post" style="stroke: #A80036; stroke-width: 1.5;" width="151" x="6" y="49.5"/><ellipse cx="64.75" cy="65.5" fill="#ADD1B2" rx="11" ry="11" style="stroke: #A80036; stroke-width: 1.0;"/><path d="M67.5156,61.375 Q67.6719,61.1563 67.8594,61.0469 Q68.0469,60.9375 68.2656,60.9375 Q68.6406,60.9375 68.875,61.1953 Q69.1094,61.4531 69.1094,62.0625 L69.1094,63.5156 Q69.1094,64.125 68.875,64.3906 Q68.6406,64.6563 68.2656,64.6563 Q67.9219,64.6563 67.7188,64.4531 Q67.5156,64.2656 67.4063,63.75 Q67.3594,63.3906 67.1719,63.2031 Q66.8438,62.8281 66.2344,62.6094 Q65.625,62.3906 65,62.3906 Q64.2344,62.3906 63.6016,62.7188 Q62.9688,63.0469 62.4766,63.7969 Q61.9844,64.5469 61.9844,65.5781 L61.9844,66.6719 Q61.9844,67.9063 62.875,68.7266 Q63.7656,69.5469 65.3594,69.5469 Q66.2969,69.5469 66.9531,69.2969 Q67.3438,69.1406 67.7656,68.7031 Q68.0313,68.4375 68.1797,68.3594 Q68.3281,68.2813 68.5313,68.2813 Q68.8594,68.2813 69.1172,68.5391 Q69.375,68.7969 69.375,69.1406 Q69.375,69.4844 69.0313,69.8906 Q68.5313,70.4688 67.7344,70.7969 Q66.6563,71.25 65.3594,71.25 Q63.8438,71.25 62.6406,70.625 Q61.6563,70.125 60.9688,69.0547 Q60.2813,67.9844 60.2813,66.7031 L60.2813,65.5469 Q60.2813,64.2188 60.8984,63.0703 Q61.5156,61.9219 62.6094,61.3047 Q63.7031,60.6875 64.9375,60.6875 Q65.6719,60.6875 66.3203,60.8516 Q66.9688,61.0156 67.5156,61.375 Z "/><text fill="#000000" font-family="sans-serif" font-size="12" lengthAdjust="spacingAndGlyphs" textLength="25" x="85.25" y="70.4102">Post</text><line style="stroke: #A80036; stroke-width: 1.5;" x1="7" x2="156" y1="81.5" y2="81.5"/><rect fill="none" height="6" style="stroke: #C82930; stroke-width: 1.0;" width="6" x="14" y="89.5"/><text fill="#000000" font-family="sans-serif" font-size="11" lengthAdjust="spacingAndGlyphs" textLength="59" x="26" y="96.9189">authorId : int</text><rect fill="none" height="6" style="stroke: #C82930; stroke-width: 1.0;" width="6" x="14" y="103.3359"/><text fill="#000000" font-family="sans-serif" font-size="11" lengthAdjust="spacingAndGlyphs" textLength="52" x="26" y="110.7549">title : string</text><rect fill="none" height="6" style="stroke: #C82930; stroke-width: 1.0;" width="6" x="14" y="117.1719"/><text fill="#000000" font-family="sans-serif" font-size="11" lengthAdjust="spacingAndGlyphs" textLength="60" x="26" y="124.5908">body : string</text><rect fill="none" height="6" style="stroke: #C82930; stroke-width: 1.0;" width="6" x="14" y="131.0078"/><text fill="#000000" font-family="sans-serif" font-size="11" lengthAdjust="spacingAndGlyphs" textLength="70" x="26" y="138.4268">date : datetime</text><rect fill="none" height="6" style="stroke: #C82930; stroke-width: 1.0;" width="6" x="14" y="144.8438"/><text fill="#000000" font-family="sans-serif" font-size="11" lengthAdjust="spacingAndGlyphs" textLength="65" x="26" y="152.2627">parentId : int?</text><line style="stroke: #A80036; stroke-width: 1.5;" x1="7" x2="156" y1="158.6797" y2="158.6797"/><ellipse cx="17" cy="169.6797" fill="#84BE84" rx="3" ry="3" style="stroke: #038048; stroke-width: 1.0;"/><text fill="#000000" font-family="sans-serif" font-size="11" lengthAdjust="spacingAndGlyphs" textLength="38" x="26" y="174.0986">Post(...)</text><ellipse cx="17" cy="183.5156" fill="#84BE84" rx="3" ry="3" style="stroke: #038048; stroke-width: 1.0;"/><text fill="#000000" font-family="sans-serif" font-size="11" lengthAdjust="spacingAndGlyphs" textLength="25" x="26" y="187.9346">Edit()</text><ellipse cx="17" cy="197.3516" fill="#84BE84" rx="3" ry="3" style="stroke: #038048; stroke-width: 1.0;"/><text fill="#000000" font-family="sans-serif" font-size="11" lengthAdjust="spacingAndGlyphs" textLength="38" x="26" y="201.7705">Delete()</text><ellipse cx="17" cy="211.1875" fill="#84BE84" rx="3" ry="3" style="stroke: #038048; stroke-width: 1.0;"/><text fill="#000000" font-family="sans-serif" font-size="11" lengthAdjust="spacingAndGlyphs" textLength="125" x="26" y="215.6064">Answer(person : Person)</text><ellipse cx="17" cy="225.0234" fill="#84BE84" rx="3" ry="3" style="stroke: #038048; stroke-width: 1.0;"/><text fill="#000000" font-family="sans-serif" font-size="11" lengthAdjust="spacingAndGlyphs" textLength="76" x="26" y="229.4424">GetPost() : Post</text><ellipse cx="17" cy="238.8594" fill="#84BE84" rx="3" ry="3" style="stroke: #038048; stroke-width: 1.0;"/><text fill="#000000" font-family="sans-serif" font-size="11" lengthAdjust="spacingAndGlyphs" text-decoration="underline" textLength="125" x="26" y="243.2783">GetPostById(id : int) : Post</text><!--class PriceList--><rect fill="#FEFECE" filter="url(#fq5fomk9eemxc)" height="103.3438" id="PriceList" style="stroke: #A80036; stroke-width: 1.5;" width="121" x="509" y="730"/><ellipse cx="542.45" cy="746" fill="#ADD1B2" rx="11" ry="11" style="stroke: #A80036; stroke-width: 1.0;"/><path d="M545.2156,741.875 Q545.3719,741.6563 545.5594,741.5469 Q545.7469,741.4375 545.9656,741.4375 Q546.3406,741.4375 546.575,741.6953 Q546.8094,741.9531 546.8094,742.5625 L546.8094,744.0156 Q546.8094,744.625 546.575,744.8906 Q546.3406,745.1563 545.9656,745.1563 Q545.6219,745.1563 545.4188,744.9531 Q545.2156,744.7656 545.1063,744.25 Q545.0594,743.8906 544.8719,743.7031 Q544.5438,743.3281 543.9344,743.1094 Q543.325,742.8906 542.7,742.8906 Q541.9344,742.8906 541.3016,743.2188 Q540.6688,743.5469 540.1766,744.2969 Q539.6844,745.0469 539.6844,746.0781 L539.6844,747.1719 Q539.6844,748.4063 540.575,749.2266 Q541.4656,750.0469 543.0594,750.0469 Q543.9969,750.0469 544.6531,749.7969 Q545.0438,749.6406 545.4656,749.2031 Q545.7313,748.9375 545.8797,748.8594 Q546.0281,748.7813 546.2313,748.7813 Q546.5594,748.7813 546.8172,749.0391 Q547.075,749.2969 547.075,749.6406 Q547.075,749.9844 546.7313,750.3906 Q546.2313,750.9688 545.4344,751.2969 Q544.3563,751.75 543.0594,751.75 Q541.5438,751.75 540.3406,751.125 Q539.3563,750.625 538.6688,749.5547 Q537.9813,748.4844 537.9813,747.2031 L537.9813,746.0469 Q537.9813,744.7188 538.5984,743.5703 Q539.2156,742.4219 540.3094,741.8047 Q541.4031,741.1875 542.6375,741.1875 Q543.3719,741.1875 544.0203,741.3516 Q544.6688,741.5156 545.2156,741.875 Z "/><text fill="#000000" font-family="sans-serif" font-size="12" lengthAdjust="spacingAndGlyphs" textLength="48" x="560.55" y="750.9102">PriceList</text><line style="stroke: #A80036; stroke-width: 1.5;" x1="510" x2="629" y1="762" y2="762"/><rect fill="none" height="6" style="stroke: #C82930; stroke-width: 1.0;" width="6" x="517" y="770"/><text fill="#000000" font-family="sans-serif" font-size="11" lengthAdjust="spacingAndGlyphs" textLength="57" x="529" y="777.4189">type : string</text><rect fill="none" height="6" style="stroke: #C82930; stroke-width: 1.0;" width="6" x="517" y="783.8359"/><text fill="#000000" font-family="sans-serif" font-size="11" lengthAdjust="spacingAndGlyphs" textLength="38" x="529" y="791.2549">age : int</text><rect fill="none" height="6" style="stroke: #C82930; stroke-width: 1.0;" width="6" x="517" y="797.6719"/><text fill="#000000" font-family="sans-serif" font-size="11" lengthAdjust="spacingAndGlyphs" textLength="65" x="529" y="805.0908">price : double</text><rect fill="none" height="6" style="stroke: #C82930; stroke-width: 1.0;" width="6" x="517" y="811.5078"/><text fill="#000000" font-family="sans-serif" font-size="11" lengthAdjust="spacingAndGlyphs" textLength="95" x="529" y="818.9268">insurance : boolean</text><line style="stroke: #A80036; stroke-width: 1.5;" x1="510" x2="629" y1="825.3438" y2="825.3438"/><!--class Status--><rect fill="#FEFECE" filter="url(#fq5fomk9eemxc)" height="89.5078" id="Status" style="stroke: #A80036; stroke-width: 1.5;" width="78" x="340.5" y="465.5"/><ellipse cx="360.45" cy="481.5" fill="#EB937F" rx="11" ry="11" style="stroke: #A80036; stroke-width: 1.0;"/><path d="M359.3094,482.2969 L359.3094,484.7969 L363.6375,484.7969 L363.6375,483.875 Q363.6375,483.2656 363.8797,483 Q364.1219,482.7344 364.4969,482.7344 Q364.8719,482.7344 365.1063,483 Q365.3406,483.2656 365.3406,483.875 L365.3406,486.5 L357.3406,486.5 Q356.7156,486.5 356.4578,486.2656 Q356.2,486.0313 356.2,485.6406 Q356.2,485.2656 356.4656,485.0313 Q356.7313,484.7969 357.3406,484.7969 L357.6063,484.7969 L357.6063,478.1406 L357.3406,478.1406 Q356.7156,478.1406 356.4578,477.9063 Q356.2,477.6719 356.2,477.2813 Q356.2,476.9063 356.4578,476.6719 Q356.7156,476.4375 357.3406,476.4375 L364.9656,476.4375 L364.9656,479.0313 Q364.9656,479.6406 364.7391,479.8984 Q364.5125,480.1563 364.1219,480.1563 Q363.7469,480.1563 363.5125,479.8984 Q363.2781,479.6406 363.2781,479.0313 L363.2781,478.1406 L359.3094,478.1406 L359.3094,480.5938 L360.7938,480.5938 Q360.7938,479.9375 360.9188,479.75 Q361.1844,479.3438 361.6531,479.3438 Q362.0281,479.3438 362.2625,479.6016 Q362.4969,479.8594 362.4969,480.4688 L362.4969,482.4375 Q362.4969,482.9844 362.3719,483.1719 Q362.1063,483.5625 361.6531,483.5625 Q361.1844,483.5625 360.9188,483.1563 Q360.7938,482.9688 360.7938,482.2969 L359.3094,482.2969 Z "/><text fill="#000000" font-family="sans-serif" font-size="12" lengthAdjust="spacingAndGlyphs" textLength="35" x="375.55" y="486.4102">Status</text><line style="stroke: #A80036; stroke-width: 1.5;" x1="341.5" x2="417.5" y1="497.5" y2="497.5"/><text fill="#000000" font-family="sans-serif" font-size="11" lengthAdjust="spacingAndGlyphs" textLength="53" x="346.5" y="512.9189">Climber = 0</text><text fill="#000000" font-family="sans-serif" font-size="11" lengthAdjust="spacingAndGlyphs" textLength="66" x="346.5" y="526.7549">Professor = 1</text><text fill="#000000" font-family="sans-serif" font-size="11" lengthAdjust="spacingAndGlyphs" textLength="48" x="346.5" y="540.5908">Admin = 2</text><line style="stroke: #A80036; stroke-width: 1.5;" x1="341.5" x2="417.5" y1="547.0078" y2="547.0078"/><!--class SubscriptionName--><rect fill="#FEFECE" filter="url(#fq5fomk9eemxc)" height="103.3438" id="SubscriptionName" style="stroke: #A80036; stroke-width: 1.5;" width="135" x="127" y="730"/><ellipse cx="142" cy="746" fill="#EB937F" rx="11" ry="11" style="stroke: #A80036; stroke-width: 1.0;"/><path d="M140.8594,746.7969 L140.8594,749.2969 L145.1875,749.2969 L145.1875,748.375 Q145.1875,747.7656 145.4297,747.5 Q145.6719,747.2344 146.0469,747.2344 Q146.4219,747.2344 146.6563,747.5 Q146.8906,747.7656 146.8906,748.375 L146.8906,751 L138.8906,751 Q138.2656,751 138.0078,750.7656 Q137.75,750.5313 137.75,750.1406 Q137.75,749.7656 138.0156,749.5313 Q138.2813,749.2969 138.8906,749.2969 L139.1563,749.2969 L139.1563,742.6406 L138.8906,742.6406 Q138.2656,742.6406 138.0078,742.4063 Q137.75,742.1719 137.75,741.7813 Q137.75,741.4063 138.0078,741.1719 Q138.2656,740.9375 138.8906,740.9375 L146.5156,740.9375 L146.5156,743.5313 Q146.5156,744.1406 146.2891,744.3984 Q146.0625,744.6563 145.6719,744.6563 Q145.2969,744.6563 145.0625,744.3984 Q144.8281,744.1406 144.8281,743.5313 L144.8281,742.6406 L140.8594,742.6406 L140.8594,745.0938 L142.3438,745.0938 Q142.3438,744.4375 142.4688,744.25 Q142.7344,743.8438 143.2031,743.8438 Q143.5781,743.8438 143.8125,744.1016 Q144.0469,744.3594 144.0469,744.9688 L144.0469,746.9375 Q144.0469,747.4844 143.9219,747.6719 Q143.6563,748.0625 143.2031,748.0625 Q142.7344,748.0625 142.4688,747.6563 Q142.3438,747.4688 142.3438,746.7969 L140.8594,746.7969 Z "/><text fill="#000000" font-family="sans-serif" font-size="12" lengthAdjust="spacingAndGlyphs" textLength="103" x="156" y="750.9102">SubscriptionName</text><line style="stroke: #A80036; stroke-width: 1.5;" x1="128" x2="261" y1="762" y2="762"/><text fill="#000000" font-family="sans-serif" font-size="11" lengthAdjust="spacingAndGlyphs" textLength="62" x="133" y="777.4189">DailyPass : 0</text><text fill="#000000" font-family="sans-serif" font-size="11" lengthAdjust="spacingAndGlyphs" textLength="76" x="133" y="791.2549">MonthlyPass : 1</text><text fill="#000000" font-family="sans-serif" font-size="11" lengthAdjust="spacingAndGlyphs" textLength="84" x="133" y="805.0908">QuarterlyPass : 2</text><text fill="#000000" font-family="sans-serif" font-size="11" lengthAdjust="spacingAndGlyphs" textLength="71" x="133" y="818.9268">YearlyPass : 3</text><line style="stroke: #A80036; stroke-width: 1.5;" x1="128" x2="261" y1="825.3438" y2="825.3438"/><!--reverse link Course to Person--><path d="M592.901,170.959 C571.675,171.921 550.197,171.951 529.75,170.5 C520.992,169.879 511.963,169.052 502.89,168.085 " fill="none" id="Course&lt;-Person" style="stroke: #A80036; stroke-width: 1.0;"/><polygon fill="#A80036" points="598,170.709,588.8153,167.1536,593.006,170.9533,589.2062,175.144,598,170.709" style="stroke: #A80036; stroke-width: 1.0;"/><text fill="#000000" font-family="sans-serif" font-size="13" lengthAdjust="spacingAndGlyphs" textLength="39" x="530.75" y="166.9951">follows</text><text fill="#000000" font-family="sans-serif" font-size="13" lengthAdjust="spacingAndGlyphs" textLength="20" x="569.9836" y="168.8473">0..*</text><text fill="#000000" font-family="sans-serif" font-size="13" lengthAdjust="spacingAndGlyphs" textLength="20" x="510.4282" y="166.1961">0..*</text><!--link Person to Course--><path d="M502.697,149.5 C528.915,149.5 557.129,149.5 584.838,149.5 " fill="none" id="Person-&gt;Course" style="stroke: #A80036; stroke-width: 1.0;"/><polygon fill="#A80036" points="597.954,149.5,591.954,145.5,585.954,149.5,591.954,153.5,597.954,149.5" style="stroke: #A80036; stroke-width: 1.0;"/><polygon fill="#000000" points="527.75,136.1758,521.75,139.1758,527.75,142.1758,527.75,136.1758" style="stroke: #000000; stroke-width: 1.0;"/><text fill="#000000" font-family="sans-serif" font-size="13" lengthAdjust="spacingAndGlyphs" textLength="46" x="533.75" y="142.9951">teaches</text><text fill="#000000" font-family="sans-serif" font-size="13" lengthAdjust="spacingAndGlyphs" textLength="7" x="510.6213" y="146.4871">1</text><text fill="#000000" font-family="sans-serif" font-size="13" lengthAdjust="spacingAndGlyphs" textLength="20" x="569.9354" y="146.611">1..*</text><!--link Person to Competition--><path d="M455.737,291.099 C467.018,312.757 478.714,335.21 490.122,357.111 " fill="none" id="Person-&gt;Competition" style="stroke: #A80036; stroke-width: 1.0; stroke-dasharray: 7.0,7.0;"/><polygon fill="#A80036" points="496.241,368.858,497.0168,361.6888,490.6974,358.2152,489.9216,365.3845,496.241,368.858" style="stroke: #A80036; stroke-width: 1.0;"/><polygon fill="#000000" points="505.5,332,508.5,326,511.5,332,505.5,332" style="stroke: #000000; stroke-width: 1.0;"/><text fill="#000000" font-family="sans-serif" font-size="13" lengthAdjust="spacingAndGlyphs" textLength="67" x="476.5" y="348.4951">participates</text><text fill="#000000" font-family="sans-serif" font-size="13" lengthAdjust="spacingAndGlyphs" textLength="20" x="439.1953" y="312.7792">0..*</text><text fill="#000000" font-family="sans-serif" font-size="13" lengthAdjust="spacingAndGlyphs" textLength="20" x="471.6878" y="358.1734">0..*</text><!--link Person to Subscription--><path d="M308.872,291.099 C291.455,324.358 273.057,359.49 256.23,391.623 " fill="none" id="Person-&gt;Subscription" style="stroke: #A80036; stroke-width: 1.0; stroke-dasharray: 7.0,7.0;"/><polygon fill="#A80036" points="250.106,403.316,256.433,399.8565,255.6731,392.6855,249.3461,396.1451,250.106,403.316" style="stroke: #A80036; stroke-width: 1.0;"/><polygon fill="#000000" points="295.5,332,298.5,326,301.5,332,295.5,332" style="stroke: #000000; stroke-width: 1.0;"/><text fill="#000000" font-family="sans-serif" font-size="13" lengthAdjust="spacingAndGlyphs" textLength="21" x="289.5" y="348.4951">has</text><text fill="#000000" font-family="sans-serif" font-size="13" lengthAdjust="spacingAndGlyphs" textLength="20" x="284.2986" y="312.7792">0..*</text><text fill="#000000" font-family="sans-serif" font-size="13" lengthAdjust="spacingAndGlyphs" textLength="22" x="231.2424" y="392.7235">0..1</text><!--reverse link Post to Person--><path d="M170.454,149.5 C199.251,149.5 231.679,149.5 262.353,149.5 " fill="none" id="Post&lt;-Person" style="stroke: #A80036; stroke-width: 1.0; stroke-dasharray: 7.0,7.0;"/><polygon fill="#A80036" points="157.066,149.5,163.066,153.5,169.066,149.5,163.066,145.5,157.066,149.5" style="stroke: #A80036; stroke-width: 1.0;"/><text fill="#000000" font-family="sans-serif" font-size="13" lengthAdjust="spacingAndGlyphs" textLength="56" x="175.25" y="142.9951">written by</text><polygon fill="#000000" points="234.25,136.1758,240.25,139.1758,234.25,142.1758,234.25,136.1758" style="stroke: #000000; stroke-width: 1.0;"/><text fill="#000000" font-family="sans-serif" font-size="13" lengthAdjust="spacingAndGlyphs" textLength="7" x="165.2197" y="146.1782">1</text><text fill="#000000" font-family="sans-serif" font-size="13" lengthAdjust="spacingAndGlyphs" textLength="20" x="234.4222" y="163.4869">0..*</text><!--link Course to PriceList--><path d="M764.398,291.021 C766.698,395.63 757.252,539.223 702.5,652 C686.927,684.077 659.835,712.506 634.149,734.4163 " fill="none" id="Course-&gt;PriceList" style="stroke: #A80036; stroke-width: 1.0; stroke-dasharray: 7.0,7.0;"/><polygon fill="#A80036" points="630.041,737.8762,639.502,735.1395,633.8658,734.6559,634.3494,729.0197,630.041,737.8762" style="stroke: #A80036; stroke-width: 1.0;"/><text fill="#000000" font-family="sans-serif" font-size="13" lengthAdjust="spacingAndGlyphs" textLength="35" x="763.5" y="515.9951">«use»</text><text fill="#000000" font-family="sans-serif" font-size="13" lengthAdjust="spacingAndGlyphs" textLength="20" x="744.4471" y="312.6969">1..*</text><text fill="#000000" font-family="sans-serif" font-size="13" lengthAdjust="spacingAndGlyphs" textLength="20" x="638.1973" y="729.4025">1..*</text><!--link Subscription to PriceList--><path d="M284.41,617.71 C296.925,629.954 310.104,641.716 323.5,652 C379.708,695.149 452.518,731.128 504.308,753.9366 " fill="none" id="Subscription-&gt;PriceList" style="stroke: #A80036; stroke-width: 1.0; stroke-dasharray: 7.0,7.0;"/><polygon fill="#A80036" points="508.938,755.9656,502.3005,748.6893,504.3585,753.9586,499.0893,756.0165,508.938,755.9656" style="stroke: #A80036; stroke-width: 1.0;"/><text fill="#000000" font-family="sans-serif" font-size="13" lengthAdjust="spacingAndGlyphs" textLength="35" x="393.5" y="696.4951">«use»</text><text fill="#000000" font-family="sans-serif" font-size="13" lengthAdjust="spacingAndGlyphs" textLength="20" x="269.779" y="638.9565">1..*</text><text fill="#000000" font-family="sans-serif" font-size="13" lengthAdjust="spacingAndGlyphs" textLength="20" x="481.2203" y="749.7933">1..*</text><!--link Competition to PriceList--><path d="M569.5,652.303 C569.5,678.075 569.5,703.539 569.5,724.897 " fill="none" id="Competition-&gt;PriceList" style="stroke: #A80036; stroke-width: 1.0; stroke-dasharray: 7.0,7.0;"/><polygon fill="#A80036" points="569.5,729.953,573.5,720.953,569.5,724.953,565.5,720.953,569.5,729.953" style="stroke: #A80036; stroke-width: 1.0;"/><text fill="#000000" font-family="sans-serif" font-size="13" lengthAdjust="spacingAndGlyphs" textLength="35" x="570.5" y="696.4951">«use»</text><text fill="#000000" font-family="sans-serif" font-size="13" lengthAdjust="spacingAndGlyphs" textLength="20" x="548.9844" y="673.526">1..*</text><text fill="#000000" font-family="sans-serif" font-size="13" lengthAdjust="spacingAndGlyphs" textLength="20" x="548.0938" y="719.0749">1..*</text><!--link Person to Status--><path d="M381.325,291.099 C380.826,350.782 380.277,416.492 379.913,460.088 " fill="none" id="Person-&gt;Status" style="stroke: #A80036; stroke-width: 1.0; stroke-dasharray: 7.0,7.0;"/><polygon fill="#A80036" points="379.869,465.293,383.9434,456.3265,379.9104,460.2932,375.9437,456.2602,379.869,465.293" style="stroke: #A80036; stroke-width: 1.0;"/><text fill="#000000" font-family="sans-serif" font-size="13" lengthAdjust="spacingAndGlyphs" textLength="35" x="381.5" y="335.4951">«use»</text><text fill="#000000" font-family="sans-serif" font-size="13" lengthAdjust="spacingAndGlyphs" textLength="20" x="360.7139" y="312.7792">1..*</text><text fill="#000000" font-family="sans-serif" font-size="13" lengthAdjust="spacingAndGlyphs" textLength="20" x="358.3943" y="454.7054">0..*</text><!--link Subscription to SubscriptionName--><path d="M194.5,617.816 C194.5,654.327 194.5,693.739 194.5,724.626 " fill="none" id="Subscription-&gt;SubscriptionName" style="stroke: #A80036; stroke-width: 1.0; stroke-dasharray: 7.0,7.0;"/><polygon fill="#A80036" points="194.5,729.898,198.5,720.898,194.5,724.898,190.5,720.898,194.5,729.898" style="stroke: #A80036; stroke-width: 1.0;"/><text fill="#000000" font-family="sans-serif" font-size="13" lengthAdjust="spacingAndGlyphs" textLength="35" x="195.5" y="696.4951">«use»</text><!--
@startuml


Person "0..*" -left-> "0..*" Course : "follows"
Person "1" -left-* "1..*" Course : "< teaches"
Person "0..*" .up.* "0..*" Competition : "< participates"
Person "0..*" .up.* "0..1" Subscription : "< has"
Person "0..*" .right.* "1" Post : "< written by"
Course "1..*" ..> "1..*" PriceList : <<use>>
Subscription "1..*" ..> "1..*" PriceList : <<use>>
Competition "1..*" ..>  "1..*" PriceList : <<use>>
Person "1..*" .down.> "0..*" Status : <<use>>
Subscription ..> SubscriptionName : <<use>>

class Person {
    -username : string
    -firstname : string
    -lastname : string
    -password : string
    -email : string?
    -birthdate : date
    -address : string?
    -picturePath : string?
    -status : Status
    +Person(...)
    +Edit()
    +Delete()
    +GetPerson() : Person
    +GetStatus() : string
    +{static}GetPersById(id : int) : Person
    +{static}GetByUsername(username : string) : Person
    +{static}GetStatusById(id : int) : string
}

enum Status {
    Climber = 0
    Professor = 1
    Admin = 2
}

Class Subscription {
    -price : PriceList[]
    -name : SubscriptionName
    -expirationDate : datetime
    +Subscription(...)
    +Edit()
    +Delete()
    +{static}Sub(person : Person, name : string) : int
    +CancelSubscription(SubId : int) : boolean
    +GetSubscription() : Subscription
    +{static}GetSubById(id : int): Subscription
    +{static}GetByPersonId(id : int) : Subscription
    +{static}GetByName(name : string) : Subscription
}

enum SubscriptionName {
    DailyPass : 0
    MonthlyPass : 1
    QuarterlyPass : 2
    YearlyPass : 3
}

Class Course {
    -period[] : datetime
    -price : PriceList[]
    -type : string
    -place : string
    -maxStudent : int
    -followers : Person[]?
    -professor : Person
    +Course(...)
    +Edit()
    +Delete()
    +GetCourse() : Course
    +SubToCourse(person : Person)
    +{static}SubToCourse(CourseId : int, person : Person) : int
    +{static}CancelSubToCourse(PersonId : int, CourseId : int) : boolean
    +{static}GetCourseById(id : int) : Course
    +{static}GetFollowersList(id : int) : Person[]
    +{static}GetProfessor(id : int) : Person
}

Class Competition {
    -period : datetime
    -price : PriceList[]
    -type : string
    -place : string
    -maxParticipants : int
    -participants : Person[]
    -winner : Person?
    +Competition(...)
    +Edit()
    +Delete()
    +SubToCompetition (person : Person)
    +EditWinner(Winner : Person)
    +GetParticipants() : Person[]
    +GetCompetition() : Competition
    +{static}SubToCompetition(id : int, person : Person)
    +{static}GetCompetitionById(id : int) : Competition
    +{static}GetParticipantsById(id : int) : Person
}

Class PriceList {
    -type : string
    -age : int
    -price : double
    -insurance : boolean
}

Class Post {
    -authorId : int
    -title : string
    -body : string
    -date : datetime
    -parentId : int?
    +Post(...)
    +Edit()
    +Delete()
    +Answer(person : Person)
    +GetPost() : Post
    +{static}GetPostById(id : int) : Post
}

@enduml

PlantUML version 1.2019.09(Mon Aug 26 18:19:51 CEST 2019)
(GPL source distribution)
Java Runtime: Java(TM) SE Runtime Environment
JVM: Java HotSpot(TM) 64-Bit Server VM
Java Version: 1.8.0_241-b07
Operating System: Windows 10
OS Version: 10.0
Default Encoding: Cp1252
Language: fr
Country: BE
--></g></svg>